# xmcd
# 
# Track frame offsets:
#     150
#     25131
#     38167
#     80840
#     110345
#     157897
#     193390
#     235797
#     281895
#     320486
# 
# Disc length: 4441
# 
# Revision: 5
# Processed by: cddbd v1.5.2PL0 Copyright (c) Steve Scherf et al.
# Submitted via: fre:ac v1.0.27
# 
DISCID=8611570a
DTITLE=Canned Heat - the Boogie House Tapes 1967-1976 [CD2)
DYEAR=2000
DGENRE=Blues
TTITLE0=Bullfrog Blues (Texas International Pop Festival 08-03-1969)
TTITLE1=Bob Speaks To the Audience (Texas International Pop Festival 08-03-1969)
TTITLE2=Pulling Hair Blues (Texas International Pop Festival 08-03-1969)
TTITLE3=You Know I Love You (California 1967)
TTITLE4=I Love My Baby (California 1967)
TTITLE5=Breathe Easy (Montreux Switzerland 1970)
TTITLE6=Sore Back Blues (Dupage County Fairground 1973)
TTITLE7=Shaken Boogie Campus Berkley 12-08-1971)
TTITLE8=Bring It On Home (Boston Tea Party 1969)
TTITLE9=Tu Vas Trop Vite (Keep It Clean)
EXTD=
EXTT0=
EXTT1=
EXTT2=
EXTT3=
EXTT4=
EXTT5=
EXTT6=
EXTT7=
EXTT8=
EXTT9=
PLAYORDER=
